<?xml version="1.0" encoding="utf-8" standalone="no"?>
<!DOCTYPE svg PUBLIC "-//W3C//DTD SVG 1.1//EN"
  "http://www.w3.org/Graphics/SVG/1.1/DTD/svg11.dtd">
<svg xmlns:xlink="http://www.w3.org/1999/xlink" width="1080pt" height="360pt" viewBox="0 0 1080 360" xmlns="http://www.w3.org/2000/svg" version="1.1">
 <metadata>
  <rdf:RDF xmlns:dc="http://purl.org/dc/elements/1.1/" xmlns:cc="http://creativecommons.org/ns#" xmlns:rdf="http://www.w3.org/1999/02/22-rdf-syntax-ns#">
   <cc:Work>
    <dc:type rdf:resource="http://purl.org/dc/dcmitype/StillImage"/>
    <dc:date>2024-02-13T20:30:17.821188</dc:date>
    <dc:format>image/svg+xml</dc:format>
    <dc:creator>
     <cc:Agent>
      <dc:title>Matplotlib v3.7.2, https://matplotlib.org/</dc:title>
     </cc:Agent>
    </dc:creator>
   </cc:Work>
  </rdf:RDF>
 </metadata>
 <defs>
  <style type="text/css">*{stroke-linejoin: round; stroke-linecap: butt}</style>
 </defs>
 <g id="figure_1">
  <g id="patch_1">
   <path d="M 0 360 
L 1080 360 
L 1080 0 
L 0 0 
z
" style="fill: #ffffff"/>
  </g>
  <g id="axes_1">
   <g id="patch_2">
    <path d="M 135 320.4 
L 381.176471 320.4 
L 381.176471 43.2 
L 135 43.2 
z
" style="fill: #ffffff"/>
   </g>
   <g id="PolyCollection_1">
    <defs>
     <path id="mec919359ca" d="M 176.029412 -150.48 
L 176.029412 -150.48 
L 217.058824 -196.68 
L 266.294118 -113.52 
L 266.294118 -113.52 
L 266.294118 -112.77156 
L 217.058824 -134.772 
L 176.029412 -151.404 
z
" style="stroke: #808080; stroke-opacity: 0.3"/>
    </defs>
    <g clip-path="url(#pbe8a1f93e3)">
     <use xlink:href="#mec919359ca" x="0" y="360" style="fill: #808080; fill-opacity: 0.3; stroke: #808080; stroke-opacity: 0.3"/>
    </g>
   </g>
   <g id="PathCollection_1">
    <defs>
     <path id="mf26e8d2266" d="M 0 3 
C 0.795609 3 1.55874 2.683901 2.12132 2.12132 
C 2.683901 1.55874 3 0.795609 3 0 
C 3 -0.795609 2.683901 -1.55874 2.12132 -2.12132 
C 1.55874 -2.683901 0.795609 -3 0 -3 
C -0.795609 -3 -1.55874 -2.683901 -2.12132 -2.12132 
C -2.683901 -1.55874 -3 -0.795609 -3 0 
C -3 0.795609 -2.683901 1.55874 -2.12132 2.12132 
C -1.55874 2.683901 -0.795609 3 0 3 
z
" style="stroke: #ff0000"/>
    </defs>
    <g clip-path="url(#pbe8a1f93e3)">
     <use xlink:href="#mf26e8d2266" x="177.460261" y="208.708332" style="fill: #ff0000; stroke: #ff0000"/>
    </g>
   </g>
   <g id="PathCollection_2">
    <defs>
     <path id="me356fe9ef1" d="M 0 3 
C 0.795609 3 1.55874 2.683901 2.12132 2.12132 
C 2.683901 1.55874 3 0.795609 3 0 
C 3 -0.795609 2.683901 -1.55874 2.12132 -2.12132 
C 1.55874 -2.683901 0.795609 -3 0 -3 
C -0.795609 -3 -1.55874 -2.683901 -2.12132 -2.12132 
C -2.683901 -1.55874 -3 -0.795609 -3 0 
C -3 0.795609 -2.683901 1.55874 -2.12132 2.12132 
C -1.55874 2.683901 -0.795609 3 0 3 
z
" style="stroke: #008000"/>
    </defs>
    <g clip-path="url(#pbe8a1f93e3)">
     <use xlink:href="#me356fe9ef1" x="217.335655" y="163.367578" style="fill: #008000; stroke: #008000"/>
    </g>
   </g>
   <g id="PathCollection_3">
    <defs>
     <path id="med9ad88b74" d="M 0 3 
C 0.795609 3 1.55874 2.683901 2.12132 2.12132 
C 2.683901 1.55874 3 0.795609 3 0 
C 3 -0.795609 2.683901 -1.55874 2.12132 -2.12132 
C 1.55874 -2.683901 0.795609 -3 0 -3 
C -0.795609 -3 -1.55874 -2.683901 -2.12132 -2.12132 
C -2.683901 -1.55874 -3 -0.795609 -3 0 
C -3 0.795609 -2.683901 1.55874 -2.12132 2.12132 
C -1.55874 2.683901 -0.795609 3 0 3 
z
" style="stroke: #0000ff"/>
    </defs>
    <g clip-path="url(#pbe8a1f93e3)">
     <use xlink:href="#med9ad88b74" x="266.985853" y="247.228364" style="fill: #0000ff; stroke: #0000ff"/>
    </g>
   </g>
   <g id="matplotlib.axis_1">
    <g id="xtick_1">
     <g id="line2d_1">
      <path d="M 135 320.4 
L 135 43.2 
" clip-path="url(#pbe8a1f93e3)" style="fill: none; stroke-dasharray: 1.85,0.8; stroke-dashoffset: 0; stroke: #808080; stroke-width: 0.5"/>
     </g>
     <g id="line2d_2">
      <defs>
       <path id="m2ac6b90f20" d="M 0 0 
L 0 3.5 
" style="stroke: #000000; stroke-width: 0.8"/>
      </defs>
      <g>
       <use xlink:href="#m2ac6b90f20" x="135" y="320.4" style="stroke: #000000; stroke-width: 0.8"/>
      </g>
     </g>
     <g id="text_1">
      <!-- 0 -->
      <g transform="translate(131.81875 334.998438) scale(0.1 -0.1)">
       <defs>
        <path id="DejaVuSans-30" d="M 2034 4250 
Q 1547 4250 1301 3770 
Q 1056 3291 1056 2328 
Q 1056 1369 1301 889 
Q 1547 409 2034 409 
Q 2525 409 2770 889 
Q 3016 1369 3016 2328 
Q 3016 3291 2770 3770 
Q 2525 4250 2034 4250 
z
M 2034 4750 
Q 2819 4750 3233 4129 
Q 3647 3509 3647 2328 
Q 3647 1150 3233 529 
Q 2819 -91 2034 -91 
Q 1250 -91 836 529 
Q 422 1150 422 2328 
Q 422 3509 836 4129 
Q 1250 4750 2034 4750 
z
" transform="scale(0.015625)"/>
       </defs>
       <use xlink:href="#DejaVuSans-30"/>
      </g>
     </g>
    </g>
    <g id="xtick_2">
     <g id="line2d_3">
      <path d="M 176.029412 320.4 
L 176.029412 43.2 
" clip-path="url(#pbe8a1f93e3)" style="fill: none; stroke-dasharray: 1.85,0.8; stroke-dashoffset: 0; stroke: #808080; stroke-width: 0.5"/>
     </g>
     <g id="line2d_4">
      <g>
       <use xlink:href="#m2ac6b90f20" x="176.029412" y="320.4" style="stroke: #000000; stroke-width: 0.8"/>
      </g>
     </g>
     <g id="text_2">
      <!-- 5 -->
      <g transform="translate(172.848162 334.998438) scale(0.1 -0.1)">
       <defs>
        <path id="DejaVuSans-35" d="M 691 4666 
L 3169 4666 
L 3169 4134 
L 1269 4134 
L 1269 2991 
Q 1406 3038 1543 3061 
Q 1681 3084 1819 3084 
Q 2600 3084 3056 2656 
Q 3513 2228 3513 1497 
Q 3513 744 3044 326 
Q 2575 -91 1722 -91 
Q 1428 -91 1123 -41 
Q 819 9 494 109 
L 494 744 
Q 775 591 1075 516 
Q 1375 441 1709 441 
Q 2250 441 2565 725 
Q 2881 1009 2881 1497 
Q 2881 1984 2565 2268 
Q 2250 2553 1709 2553 
Q 1456 2553 1204 2497 
Q 953 2441 691 2322 
L 691 4666 
z
" transform="scale(0.015625)"/>
       </defs>
       <use xlink:href="#DejaVuSans-35"/>
      </g>
     </g>
    </g>
    <g id="xtick_3">
     <g id="line2d_5">
      <path d="M 217.058824 320.4 
L 217.058824 43.2 
" clip-path="url(#pbe8a1f93e3)" style="fill: none; stroke-dasharray: 1.85,0.8; stroke-dashoffset: 0; stroke: #808080; stroke-width: 0.5"/>
     </g>
     <g id="line2d_6">
      <g>
       <use xlink:href="#m2ac6b90f20" x="217.058824" y="320.4" style="stroke: #000000; stroke-width: 0.8"/>
      </g>
     </g>
     <g id="text_3">
      <!-- 10 -->
      <g transform="translate(210.696324 334.998438) scale(0.1 -0.1)">
       <defs>
        <path id="DejaVuSans-31" d="M 794 531 
L 1825 531 
L 1825 4091 
L 703 3866 
L 703 4441 
L 1819 4666 
L 2450 4666 
L 2450 531 
L 3481 531 
L 3481 0 
L 794 0 
L 794 531 
z
" transform="scale(0.015625)"/>
       </defs>
       <use xlink:href="#DejaVuSans-31"/>
       <use xlink:href="#DejaVuSans-30" x="63.623047"/>
      </g>
     </g>
    </g>
    <g id="xtick_4">
     <g id="line2d_7">
      <path d="M 258.088235 320.4 
L 258.088235 43.2 
" clip-path="url(#pbe8a1f93e3)" style="fill: none; stroke-dasharray: 1.85,0.8; stroke-dashoffset: 0; stroke: #808080; stroke-width: 0.5"/>
     </g>
     <g id="line2d_8">
      <g>
       <use xlink:href="#m2ac6b90f20" x="258.088235" y="320.4" style="stroke: #000000; stroke-width: 0.8"/>
      </g>
     </g>
     <g id="text_4">
      <!-- 15 -->
      <g transform="translate(251.725735 334.998438) scale(0.1 -0.1)">
       <use xlink:href="#DejaVuSans-31"/>
       <use xlink:href="#DejaVuSans-35" x="63.623047"/>
      </g>
     </g>
    </g>
    <g id="xtick_5">
     <g id="line2d_9">
      <path d="M 299.117647 320.4 
L 299.117647 43.2 
" clip-path="url(#pbe8a1f93e3)" style="fill: none; stroke-dasharray: 1.85,0.8; stroke-dashoffset: 0; stroke: #808080; stroke-width: 0.5"/>
     </g>
     <g id="line2d_10">
      <g>
       <use xlink:href="#m2ac6b90f20" x="299.117647" y="320.4" style="stroke: #000000; stroke-width: 0.8"/>
      </g>
     </g>
     <g id="text_5">
      <!-- 20 -->
      <g transform="translate(292.755147 334.998438) scale(0.1 -0.1)">
       <defs>
        <path id="DejaVuSans-32" d="M 1228 531 
L 3431 531 
L 3431 0 
L 469 0 
L 469 531 
Q 828 903 1448 1529 
Q 2069 2156 2228 2338 
Q 2531 2678 2651 2914 
Q 2772 3150 2772 3378 
Q 2772 3750 2511 3984 
Q 2250 4219 1831 4219 
Q 1534 4219 1204 4116 
Q 875 4013 500 3803 
L 500 4441 
Q 881 4594 1212 4672 
Q 1544 4750 1819 4750 
Q 2544 4750 2975 4387 
Q 3406 4025 3406 3419 
Q 3406 3131 3298 2873 
Q 3191 2616 2906 2266 
Q 2828 2175 2409 1742 
Q 1991 1309 1228 531 
z
" transform="scale(0.015625)"/>
       </defs>
       <use xlink:href="#DejaVuSans-32"/>
       <use xlink:href="#DejaVuSans-30" x="63.623047"/>
      </g>
     </g>
    </g>
    <g id="xtick_6">
     <g id="line2d_11">
      <path d="M 340.147059 320.4 
L 340.147059 43.2 
" clip-path="url(#pbe8a1f93e3)" style="fill: none; stroke-dasharray: 1.85,0.8; stroke-dashoffset: 0; stroke: #808080; stroke-width: 0.5"/>
     </g>
     <g id="line2d_12">
      <g>
       <use xlink:href="#m2ac6b90f20" x="340.147059" y="320.4" style="stroke: #000000; stroke-width: 0.8"/>
      </g>
     </g>
     <g id="text_6">
      <!-- 25 -->
      <g transform="translate(333.784559 334.998438) scale(0.1 -0.1)">
       <use xlink:href="#DejaVuSans-32"/>
       <use xlink:href="#DejaVuSans-35" x="63.623047"/>
      </g>
     </g>
    </g>
    <g id="xtick_7">
     <g id="line2d_13">
      <path d="M 381.176471 320.4 
L 381.176471 43.2 
" clip-path="url(#pbe8a1f93e3)" style="fill: none; stroke-dasharray: 1.85,0.8; stroke-dashoffset: 0; stroke: #808080; stroke-width: 0.5"/>
     </g>
     <g id="line2d_14">
      <g>
       <use xlink:href="#m2ac6b90f20" x="381.176471" y="320.4" style="stroke: #000000; stroke-width: 0.8"/>
      </g>
     </g>
     <g id="text_7">
      <!-- 30 -->
      <g transform="translate(374.813971 334.998438) scale(0.1 -0.1)">
       <defs>
        <path id="DejaVuSans-33" d="M 2597 2516 
Q 3050 2419 3304 2112 
Q 3559 1806 3559 1356 
Q 3559 666 3084 287 
Q 2609 -91 1734 -91 
Q 1441 -91 1130 -33 
Q 819 25 488 141 
L 488 750 
Q 750 597 1062 519 
Q 1375 441 1716 441 
Q 2309 441 2620 675 
Q 2931 909 2931 1356 
Q 2931 1769 2642 2001 
Q 2353 2234 1838 2234 
L 1294 2234 
L 1294 2753 
L 1863 2753 
Q 2328 2753 2575 2939 
Q 2822 3125 2822 3475 
Q 2822 3834 2567 4026 
Q 2313 4219 1838 4219 
Q 1578 4219 1281 4162 
Q 984 4106 628 3988 
L 628 4550 
Q 988 4650 1302 4700 
Q 1616 4750 1894 4750 
Q 2613 4750 3031 4423 
Q 3450 4097 3450 3541 
Q 3450 3153 3228 2886 
Q 3006 2619 2597 2516 
z
" transform="scale(0.015625)"/>
       </defs>
       <use xlink:href="#DejaVuSans-33"/>
       <use xlink:href="#DejaVuSans-30" x="63.623047"/>
      </g>
     </g>
    </g>
    <g id="text_8">
     <!-- $x_1$ -->
     <g transform="translate(252.738235 348.676562) scale(0.1 -0.1)">
      <defs>
       <path id="DejaVuSans-Oblique-78" d="M 3841 3500 
L 2234 1784 
L 3219 0 
L 2559 0 
L 1819 1388 
L 531 0 
L -166 0 
L 1556 1844 
L 641 3500 
L 1300 3500 
L 1972 2234 
L 3144 3500 
L 3841 3500 
z
" transform="scale(0.015625)"/>
      </defs>
      <use xlink:href="#DejaVuSans-Oblique-78" transform="translate(0 0.3125)"/>
      <use xlink:href="#DejaVuSans-31" transform="translate(59.179688 -16.09375) scale(0.7)"/>
     </g>
    </g>
   </g>
   <g id="matplotlib.axis_2">
    <g id="ytick_1">
     <g id="line2d_15">
      <path d="M 135 320.4 
L 381.176471 320.4 
" clip-path="url(#pbe8a1f93e3)" style="fill: none; stroke-dasharray: 1.85,0.8; stroke-dashoffset: 0; stroke: #808080; stroke-width: 0.5"/>
     </g>
     <g id="line2d_16">
      <defs>
       <path id="mfd64ad26bd" d="M 0 0 
L -3.5 0 
" style="stroke: #000000; stroke-width: 0.8"/>
      </defs>
      <g>
       <use xlink:href="#mfd64ad26bd" x="135" y="320.4" style="stroke: #000000; stroke-width: 0.8"/>
      </g>
     </g>
     <g id="text_9">
      <!-- 0 -->
      <g transform="translate(121.6375 324.199219) scale(0.1 -0.1)">
       <use xlink:href="#DejaVuSans-30"/>
      </g>
     </g>
    </g>
    <g id="ytick_2">
     <g id="line2d_17">
      <path d="M 135 274.2 
L 381.176471 274.2 
" clip-path="url(#pbe8a1f93e3)" style="fill: none; stroke-dasharray: 1.85,0.8; stroke-dashoffset: 0; stroke: #808080; stroke-width: 0.5"/>
     </g>
     <g id="line2d_18">
      <g>
       <use xlink:href="#mfd64ad26bd" x="135" y="274.2" style="stroke: #000000; stroke-width: 0.8"/>
      </g>
     </g>
     <g id="text_10">
      <!-- 5 -->
      <g transform="translate(121.6375 277.999219) scale(0.1 -0.1)">
       <use xlink:href="#DejaVuSans-35"/>
      </g>
     </g>
    </g>
    <g id="ytick_3">
     <g id="line2d_19">
      <path d="M 135 228 
L 381.176471 228 
" clip-path="url(#pbe8a1f93e3)" style="fill: none; stroke-dasharray: 1.85,0.8; stroke-dashoffset: 0; stroke: #808080; stroke-width: 0.5"/>
     </g>
     <g id="line2d_20">
      <g>
       <use xlink:href="#mfd64ad26bd" x="135" y="228" style="stroke: #000000; stroke-width: 0.8"/>
      </g>
     </g>
     <g id="text_11">
      <!-- 10 -->
      <g transform="translate(115.275 231.799219) scale(0.1 -0.1)">
       <use xlink:href="#DejaVuSans-31"/>
       <use xlink:href="#DejaVuSans-30" x="63.623047"/>
      </g>
     </g>
    </g>
    <g id="ytick_4">
     <g id="line2d_21">
      <path d="M 135 181.8 
L 381.176471 181.8 
" clip-path="url(#pbe8a1f93e3)" style="fill: none; stroke-dasharray: 1.85,0.8; stroke-dashoffset: 0; stroke: #808080; stroke-width: 0.5"/>
     </g>
     <g id="line2d_22">
      <g>
       <use xlink:href="#mfd64ad26bd" x="135" y="181.8" style="stroke: #000000; stroke-width: 0.8"/>
      </g>
     </g>
     <g id="text_12">
      <!-- 15 -->
      <g transform="translate(115.275 185.599219) scale(0.1 -0.1)">
       <use xlink:href="#DejaVuSans-31"/>
       <use xlink:href="#DejaVuSans-35" x="63.623047"/>
      </g>
     </g>
    </g>
    <g id="ytick_5">
     <g id="line2d_23">
      <path d="M 135 135.6 
L 381.176471 135.6 
" clip-path="url(#pbe8a1f93e3)" style="fill: none; stroke-dasharray: 1.85,0.8; stroke-dashoffset: 0; stroke: #808080; stroke-width: 0.5"/>
     </g>
     <g id="line2d_24">
      <g>
       <use xlink:href="#mfd64ad26bd" x="135" y="135.6" style="stroke: #000000; stroke-width: 0.8"/>
      </g>
     </g>
     <g id="text_13">
      <!-- 20 -->
      <g transform="translate(115.275 139.399219) scale(0.1 -0.1)">
       <use xlink:href="#DejaVuSans-32"/>
       <use xlink:href="#DejaVuSans-30" x="63.623047"/>
      </g>
     </g>
    </g>
    <g id="ytick_6">
     <g id="line2d_25">
      <path d="M 135 89.4 
L 381.176471 89.4 
" clip-path="url(#pbe8a1f93e3)" style="fill: none; stroke-dasharray: 1.85,0.8; stroke-dashoffset: 0; stroke: #808080; stroke-width: 0.5"/>
     </g>
     <g id="line2d_26">
      <g>
       <use xlink:href="#mfd64ad26bd" x="135" y="89.4" style="stroke: #000000; stroke-width: 0.8"/>
      </g>
     </g>
     <g id="text_14">
      <!-- 25 -->
      <g transform="translate(115.275 93.199219) scale(0.1 -0.1)">
       <use xlink:href="#DejaVuSans-32"/>
       <use xlink:href="#DejaVuSans-35" x="63.623047"/>
      </g>
     </g>
    </g>
    <g id="ytick_7">
     <g id="line2d_27">
      <path d="M 135 43.2 
L 381.176471 43.2 
" clip-path="url(#pbe8a1f93e3)" style="fill: none; stroke-dasharray: 1.85,0.8; stroke-dashoffset: 0; stroke: #808080; stroke-width: 0.5"/>
     </g>
     <g id="line2d_28">
      <g>
       <use xlink:href="#mfd64ad26bd" x="135" y="43.2" style="stroke: #000000; stroke-width: 0.8"/>
      </g>
     </g>
     <g id="text_15">
      <!-- 30 -->
      <g transform="translate(115.275 46.999219) scale(0.1 -0.1)">
       <use xlink:href="#DejaVuSans-33"/>
       <use xlink:href="#DejaVuSans-30" x="63.623047"/>
      </g>
     </g>
    </g>
    <g id="text_16">
     <!-- $x_2$ -->
     <g transform="translate(109.195312 187.15) rotate(-90) scale(0.1 -0.1)">
      <use xlink:href="#DejaVuSans-Oblique-78" transform="translate(0 0.3125)"/>
      <use xlink:href="#DejaVuSans-32" transform="translate(59.179688 -16.09375) scale(0.7)"/>
     </g>
    </g>
   </g>
   <g id="line2d_29">
    <path d="M 135 256.988235 
L 139.144385 252.275817 
L 143.28877 247.563399 
L 147.433155 242.85098 
L 151.57754 238.138562 
L 155.721925 233.426144 
L 159.86631 228.713725 
L 164.010695 224.001307 
L 168.15508 219.288889 
L 172.299465 214.576471 
L 176.44385 209.864052 
L 180.588235 205.151634 
L 184.73262 200.439216 
L 188.877005 195.726797 
L 193.02139 191.014379 
L 197.165775 186.301961 
L 201.31016 181.589542 
L 205.454545 176.877124 
L 209.59893 172.164706 
L 213.743316 167.452288 
L 217.887701 162.739869 
L 222.032086 158.027451 
L 226.176471 153.315033 
L 230.320856 148.602614 
L 234.465241 143.890196 
L 238.609626 139.177778 
L 242.754011 134.465359 
L 246.898396 129.752941 
L 251.042781 125.040523 
L 255.187166 120.328105 
L 259.331551 115.615686 
L 263.475936 110.903268 
L 267.620321 106.19085 
L 271.764706 101.478431 
L 275.909091 96.766013 
L 280.053476 92.053595 
L 284.197861 87.341176 
L 288.342246 82.628758 
L 292.486631 77.91634 
L 296.631016 73.203922 
L 300.775401 68.491503 
L 304.919786 63.779085 
L 309.064171 59.066667 
L 313.208556 54.354248 
L 317.352941 49.64183 
L 321.497326 44.929412 
L 325.641711 40.216993 
L 329.786096 35.504575 
L 333.930481 30.792157 
L 338.074866 26.079739 
L 342.219251 21.36732 
L 346.363636 16.654902 
L 350.508021 11.942484 
L 354.652406 7.230065 
L 358.796791 2.517647 
L 361.890423 -1 
" clip-path="url(#pbe8a1f93e3)" style="fill: none; stroke-dasharray: 5.55,2.4; stroke-dashoffset: 0; stroke: #0000ff; stroke-width: 1.5"/>
   </g>
   <g id="line2d_30">
    <path d="M 135 190.439024 
L 139.144385 192.222222 
L 143.28877 194.00542 
L 147.433155 195.788618 
L 151.57754 197.571816 
L 155.721925 199.355014 
L 159.86631 201.138211 
L 164.010695 202.921409 
L 168.15508 204.704607 
L 172.299465 206.487805 
L 176.44385 208.271003 
L 180.588235 210.054201 
L 184.73262 211.837398 
L 188.877005 213.620596 
L 193.02139 215.403794 
L 197.165775 217.186992 
L 201.31016 218.97019 
L 205.454545 220.753388 
L 209.59893 222.536585 
L 213.743316 224.319783 
L 217.887701 226.102981 
L 222.032086 227.886179 
L 226.176471 229.669377 
L 230.320856 231.452575 
L 234.465241 233.235772 
L 238.609626 235.01897 
L 242.754011 236.802168 
L 246.898396 238.585366 
L 251.042781 240.368564 
L 255.187166 242.151762 
L 259.331551 243.934959 
L 263.475936 245.718157 
L 267.620321 247.501355 
L 271.764706 249.284553 
L 275.909091 251.067751 
L 280.053476 252.850949 
L 284.197861 254.634146 
L 288.342246 256.417344 
L 292.486631 258.200542 
L 296.631016 259.98374 
L 300.775401 261.766938 
L 304.919786 263.550136 
L 309.064171 265.333333 
L 313.208556 267.116531 
L 317.352941 268.899729 
L 321.497326 270.682927 
L 325.641711 272.466125 
L 329.786096 274.249322 
L 333.930481 276.03252 
L 338.074866 277.815718 
L 342.219251 279.598916 
L 346.363636 281.382114 
L 350.508021 283.165312 
L 354.652406 284.948509 
L 358.796791 286.731707 
L 362.941176 288.514905 
L 367.085561 290.298103 
L 371.229947 292.081301 
L 375.374332 293.864499 
L 379.518717 295.647696 
L 383.663102 297.430894 
L 387.807487 299.214092 
L 391.951872 300.99729 
L 396.096257 302.780488 
L 400.240642 304.563686 
L 404.385027 306.346883 
L 408.529412 308.130081 
L 412.673797 309.913279 
L 416.818182 311.696477 
L 420.962567 313.479675 
L 425.106952 315.262873 
L 429.251337 317.04607 
L 433.395722 318.829268 
L 437.540107 320.612466 
L 441.684492 322.395664 
L 445.828877 324.178862 
L 449.973262 325.96206 
L 454.117647 327.745257 
L 458.262032 329.528455 
L 462.406417 331.311653 
L 466.550802 333.094851 
L 470.695187 334.878049 
L 474.839572 336.661247 
L 478.983957 338.444444 
L 483.128342 340.227642 
L 487.272727 342.01084 
L 491.417112 343.794038 
L 495.561497 345.577236 
L 499.705882 347.360434 
L 503.850267 349.143631 
L 507.994652 350.926829 
L 512.139037 352.710027 
L 516.283422 354.493225 
L 520.427807 356.276423 
L 524.572193 358.059621 
L 528.716578 359.842818 
L 531.406019 361 
" clip-path="url(#pbe8a1f93e3)" style="fill: none; stroke-dasharray: 1.5,2.475; stroke-dashoffset: 0; stroke: #ff0000; stroke-width: 1.5"/>
   </g>
   <g id="line2d_31">
    <path d="M 135 24.3 
L 139.144385 31.3 
L 143.28877 38.3 
L 147.433155 45.3 
L 151.57754 52.3 
L 155.721925 59.3 
L 159.86631 66.3 
L 164.010695 73.3 
L 168.15508 80.3 
L 172.299465 87.3 
L 176.44385 94.3 
L 180.588235 101.3 
L 184.73262 108.3 
L 188.877005 115.3 
L 193.02139 122.3 
L 197.165775 129.3 
L 201.31016 136.3 
L 205.454545 143.3 
L 209.59893 150.3 
L 213.743316 157.3 
L 217.887701 164.3 
L 222.032086 171.3 
L 226.176471 178.3 
L 230.320856 185.3 
L 234.465241 192.3 
L 238.609626 199.3 
L 242.754011 206.3 
L 246.898396 213.3 
L 251.042781 220.3 
L 255.187166 227.3 
L 259.331551 234.3 
L 263.475936 241.3 
L 267.620321 248.3 
L 271.764706 255.3 
L 275.909091 262.3 
L 280.053476 269.3 
L 284.197861 276.3 
L 288.342246 283.3 
L 292.486631 290.3 
L 296.631016 297.3 
L 300.775401 304.3 
L 304.919786 311.3 
L 309.064171 318.3 
L 313.208556 325.3 
L 317.352941 332.3 
L 321.497326 339.3 
L 325.641711 346.3 
L 329.786096 353.3 
L 333.930481 360.3 
L 334.34492 361 
" clip-path="url(#pbe8a1f93e3)" style="fill: none; stroke-dasharray: 9.6,2.4,1.5,2.4; stroke-dashoffset: 0; stroke: #008000; stroke-width: 1.5"/>
   </g>
   <g id="patch_3">
    <path d="M 135 320.4 
L 135 43.2 
" style="fill: none; stroke: #000000; stroke-width: 0.8; stroke-linejoin: miter; stroke-linecap: square"/>
   </g>
   <g id="patch_4">
    <path d="M 381.176471 320.4 
L 381.176471 43.2 
" style="fill: none; stroke: #000000; stroke-width: 0.8; stroke-linejoin: miter; stroke-linecap: square"/>
   </g>
   <g id="patch_5">
    <path d="M 135 320.4 
L 381.176471 320.4 
" style="fill: none; stroke: #000000; stroke-width: 0.8; stroke-linejoin: miter; stroke-linecap: square"/>
   </g>
   <g id="patch_6">
    <path d="M 135 43.2 
L 381.176471 43.2 
" style="fill: none; stroke: #000000; stroke-width: 0.8; stroke-linejoin: miter; stroke-linecap: square"/>
   </g>
   <g id="text_17">
    <!-- $-10.3x_{1} + 10.2x_{2} = 70$ -->
    <g style="fill: #0000ff" transform="translate(263.822849 136.31529) rotate(-49) scale(0.1 -0.1)">
     <defs>
      <path id="DejaVuSans-2212" d="M 678 2272 
L 4684 2272 
L 4684 1741 
L 678 1741 
L 678 2272 
z
" transform="scale(0.015625)"/>
      <path id="DejaVuSans-2e" d="M 684 794 
L 1344 794 
L 1344 0 
L 684 0 
L 684 794 
z
" transform="scale(0.015625)"/>
      <path id="DejaVuSans-2b" d="M 2944 4013 
L 2944 2272 
L 4684 2272 
L 4684 1741 
L 2944 1741 
L 2944 0 
L 2419 0 
L 2419 1741 
L 678 1741 
L 678 2272 
L 2419 2272 
L 2419 4013 
L 2944 4013 
z
" transform="scale(0.015625)"/>
      <path id="DejaVuSans-3d" d="M 678 2906 
L 4684 2906 
L 4684 2381 
L 678 2381 
L 678 2906 
z
M 678 1631 
L 4684 1631 
L 4684 1100 
L 678 1100 
L 678 1631 
z
" transform="scale(0.015625)"/>
      <path id="DejaVuSans-37" d="M 525 4666 
L 3525 4666 
L 3525 4397 
L 1831 0 
L 1172 0 
L 2766 4134 
L 525 4134 
L 525 4666 
z
" transform="scale(0.015625)"/>
     </defs>
     <use xlink:href="#DejaVuSans-2212" transform="translate(0 0.78125)"/>
     <use xlink:href="#DejaVuSans-31" transform="translate(83.789062 0.78125)"/>
     <use xlink:href="#DejaVuSans-30" transform="translate(147.412109 0.78125)"/>
     <use xlink:href="#DejaVuSans-2e" transform="translate(211.035156 0.78125)"/>
     <use xlink:href="#DejaVuSans-33" transform="translate(242.822266 0.78125)"/>
     <use xlink:href="#DejaVuSans-Oblique-78" transform="translate(306.445312 0.78125)"/>
     <use xlink:href="#DejaVuSans-31" transform="translate(365.625 -15.625) scale(0.7)"/>
     <use xlink:href="#DejaVuSans-2b" transform="translate(432.37793 0.78125)"/>
     <use xlink:href="#DejaVuSans-31" transform="translate(535.649414 0.78125)"/>
     <use xlink:href="#DejaVuSans-30" transform="translate(599.272461 0.78125)"/>
     <use xlink:href="#DejaVuSans-2e" transform="translate(662.895508 0.78125)"/>
     <use xlink:href="#DejaVuSans-32" transform="translate(689.182617 0.78125)"/>
     <use xlink:href="#DejaVuSans-Oblique-78" transform="translate(752.805664 0.78125)"/>
     <use xlink:href="#DejaVuSans-32" transform="translate(811.985352 -15.625) scale(0.7)"/>
     <use xlink:href="#DejaVuSans-3d" transform="translate(878.738281 0.78125)"/>
     <use xlink:href="#DejaVuSans-37" transform="translate(982.009766 0.78125)"/>
     <use xlink:href="#DejaVuSans-30" transform="translate(1045.632812 0.78125)"/>
    </g>
   </g>
   <g id="text_18">
    <!-- $13.2x_{1} + 8.8x_{2} = 282$ -->
    <g style="fill: #008000" transform="translate(136.801062 48.045445) rotate(-300) scale(0.1 -0.1)">
     <defs>
      <path id="DejaVuSans-38" d="M 2034 2216 
Q 1584 2216 1326 1975 
Q 1069 1734 1069 1313 
Q 1069 891 1326 650 
Q 1584 409 2034 409 
Q 2484 409 2743 651 
Q 3003 894 3003 1313 
Q 3003 1734 2745 1975 
Q 2488 2216 2034 2216 
z
M 1403 2484 
Q 997 2584 770 2862 
Q 544 3141 544 3541 
Q 544 4100 942 4425 
Q 1341 4750 2034 4750 
Q 2731 4750 3128 4425 
Q 3525 4100 3525 3541 
Q 3525 3141 3298 2862 
Q 3072 2584 2669 2484 
Q 3125 2378 3379 2068 
Q 3634 1759 3634 1313 
Q 3634 634 3220 271 
Q 2806 -91 2034 -91 
Q 1263 -91 848 271 
Q 434 634 434 1313 
Q 434 1759 690 2068 
Q 947 2378 1403 2484 
z
M 1172 3481 
Q 1172 3119 1398 2916 
Q 1625 2713 2034 2713 
Q 2441 2713 2670 2916 
Q 2900 3119 2900 3481 
Q 2900 3844 2670 4047 
Q 2441 4250 2034 4250 
Q 1625 4250 1398 4047 
Q 1172 3844 1172 3481 
z
" transform="scale(0.015625)"/>
     </defs>
     <use xlink:href="#DejaVuSans-31" transform="translate(0 0.78125)"/>
     <use xlink:href="#DejaVuSans-33" transform="translate(63.623047 0.78125)"/>
     <use xlink:href="#DejaVuSans-2e" transform="translate(127.246094 0.78125)"/>
     <use xlink:href="#DejaVuSans-32" transform="translate(153.533203 0.78125)"/>
     <use xlink:href="#DejaVuSans-Oblique-78" transform="translate(217.15625 0.78125)"/>
     <use xlink:href="#DejaVuSans-31" transform="translate(276.335938 -15.625) scale(0.7)"/>
     <use xlink:href="#DejaVuSans-2b" transform="translate(343.088867 0.78125)"/>
     <use xlink:href="#DejaVuSans-38" transform="translate(446.360352 0.78125)"/>
     <use xlink:href="#DejaVuSans-2e" transform="translate(509.983398 0.78125)"/>
     <use xlink:href="#DejaVuSans-38" transform="translate(539.145508 0.78125)"/>
     <use xlink:href="#DejaVuSans-Oblique-78" transform="translate(602.768555 0.78125)"/>
     <use xlink:href="#DejaVuSans-32" transform="translate(661.948242 -15.625) scale(0.7)"/>
     <use xlink:href="#DejaVuSans-3d" transform="translate(728.701172 0.78125)"/>
     <use xlink:href="#DejaVuSans-32" transform="translate(831.972656 0.78125)"/>
     <use xlink:href="#DejaVuSans-38" transform="translate(895.595703 0.78125)"/>
     <use xlink:href="#DejaVuSans-32" transform="translate(959.21875 0.78125)"/>
    </g>
   </g>
   <g id="text_19">
    <!-- $4.7x_{1} + 12.3x_{2} = 173$ -->
    <g style="fill: #ff0000" transform="translate(267.106716 243.594458) rotate(-337) scale(0.1 -0.1)">
     <defs>
      <path id="DejaVuSans-34" d="M 2419 4116 
L 825 1625 
L 2419 1625 
L 2419 4116 
z
M 2253 4666 
L 3047 4666 
L 3047 1625 
L 3713 1625 
L 3713 1100 
L 3047 1100 
L 3047 0 
L 2419 0 
L 2419 1100 
L 313 1100 
L 313 1709 
L 2253 4666 
z
" transform="scale(0.015625)"/>
     </defs>
     <use xlink:href="#DejaVuSans-34" transform="translate(0 0.78125)"/>
     <use xlink:href="#DejaVuSans-2e" transform="translate(63.623047 0.78125)"/>
     <use xlink:href="#DejaVuSans-37" transform="translate(87.660156 0.78125)"/>
     <use xlink:href="#DejaVuSans-Oblique-78" transform="translate(151.283203 0.78125)"/>
     <use xlink:href="#DejaVuSans-31" transform="translate(210.462891 -15.625) scale(0.7)"/>
     <use xlink:href="#DejaVuSans-2b" transform="translate(277.21582 0.78125)"/>
     <use xlink:href="#DejaVuSans-31" transform="translate(380.487305 0.78125)"/>
     <use xlink:href="#DejaVuSans-32" transform="translate(444.110352 0.78125)"/>
     <use xlink:href="#DejaVuSans-2e" transform="translate(507.733398 0.78125)"/>
     <use xlink:href="#DejaVuSans-33" transform="translate(539.520508 0.78125)"/>
     <use xlink:href="#DejaVuSans-Oblique-78" transform="translate(603.143555 0.78125)"/>
     <use xlink:href="#DejaVuSans-32" transform="translate(662.323242 -15.625) scale(0.7)"/>
     <use xlink:href="#DejaVuSans-3d" transform="translate(729.076172 0.78125)"/>
     <use xlink:href="#DejaVuSans-31" transform="translate(832.347656 0.78125)"/>
     <use xlink:href="#DejaVuSans-37" transform="translate(895.970703 0.78125)"/>
     <use xlink:href="#DejaVuSans-33" transform="translate(959.59375 0.78125)"/>
    </g>
   </g>
   <g id="patch_7">
    <path d="M 193.289583 243.492467 
Q 185.789398 227.01119 178.752304 211.547532 
" style="fill: none; stroke: #000000; stroke-linecap: round"/>
    <path d="M 178.588736 216.016675 
L 178.752304 211.547532 
L 182.229478 214.359872 
" style="fill: none; stroke: #000000; stroke-linecap: round"/>
   </g>
   <g id="text_20">
    <!-- перетин line1 i line2 -->
    <g transform="translate(144.636731 254.908332) scale(0.1 -0.1)">
     <defs>
      <path id="DejaVuSans-43f" d="M 3603 3500 
L 3603 0 
L 3025 0 
L 3025 3041 
L 1159 3041 
L 1159 0 
L 581 0 
L 581 3500 
L 3603 3500 
z
" transform="scale(0.015625)"/>
      <path id="DejaVuSans-435" d="M 3597 1894 
L 3597 1613 
L 953 1613 
Q 991 1019 1311 708 
Q 1631 397 2203 397 
Q 2534 397 2845 478 
Q 3156 559 3463 722 
L 3463 178 
Q 3153 47 2828 -22 
Q 2503 -91 2169 -91 
Q 1331 -91 842 396 
Q 353 884 353 1716 
Q 353 2575 817 3079 
Q 1281 3584 2069 3584 
Q 2775 3584 3186 3129 
Q 3597 2675 3597 1894 
z
M 3022 2063 
Q 3016 2534 2758 2815 
Q 2500 3097 2075 3097 
Q 1594 3097 1305 2825 
Q 1016 2553 972 2059 
L 3022 2063 
z
" transform="scale(0.015625)"/>
      <path id="DejaVuSans-440" d="M 1159 525 
L 1159 -1331 
L 581 -1331 
L 581 3500 
L 1159 3500 
L 1159 2969 
Q 1341 3281 1617 3432 
Q 1894 3584 2278 3584 
Q 2916 3584 3314 3078 
Q 3713 2572 3713 1747 
Q 3713 922 3314 415 
Q 2916 -91 2278 -91 
Q 1894 -91 1617 61 
Q 1341 213 1159 525 
z
M 3116 1747 
Q 3116 2381 2855 2742 
Q 2594 3103 2138 3103 
Q 1681 3103 1420 2742 
Q 1159 2381 1159 1747 
Q 1159 1113 1420 752 
Q 1681 391 2138 391 
Q 2594 391 2855 752 
Q 3116 1113 3116 1747 
z
" transform="scale(0.015625)"/>
      <path id="DejaVuSans-442" d="M 188 3500 
L 3541 3500 
L 3541 3041 
L 2147 3041 
L 2147 0 
L 1581 0 
L 1581 3041 
L 188 3041 
L 188 3500 
z
" transform="scale(0.015625)"/>
      <path id="DejaVuSans-438" d="M 3578 3500 
L 3578 0 
L 3006 0 
L 3006 2809 
L 1319 0 
L 581 0 
L 581 3500 
L 1153 3500 
L 1153 697 
L 2838 3500 
L 3578 3500 
z
" transform="scale(0.015625)"/>
      <path id="DejaVuSans-43d" d="M 581 3500 
L 1159 3500 
L 1159 2072 
L 3025 2072 
L 3025 3500 
L 3603 3500 
L 3603 0 
L 3025 0 
L 3025 1613 
L 1159 1613 
L 1159 0 
L 581 0 
L 581 3500 
z
" transform="scale(0.015625)"/>
      <path id="DejaVuSans-20" transform="scale(0.015625)"/>
      <path id="DejaVuSans-6c" d="M 603 4863 
L 1178 4863 
L 1178 0 
L 603 0 
L 603 4863 
z
" transform="scale(0.015625)"/>
      <path id="DejaVuSans-69" d="M 603 3500 
L 1178 3500 
L 1178 0 
L 603 0 
L 603 3500 
z
M 603 4863 
L 1178 4863 
L 1178 4134 
L 603 4134 
L 603 4863 
z
" transform="scale(0.015625)"/>
      <path id="DejaVuSans-6e" d="M 3513 2113 
L 3513 0 
L 2938 0 
L 2938 2094 
Q 2938 2591 2744 2837 
Q 2550 3084 2163 3084 
Q 1697 3084 1428 2787 
Q 1159 2491 1159 1978 
L 1159 0 
L 581 0 
L 581 3500 
L 1159 3500 
L 1159 2956 
Q 1366 3272 1645 3428 
Q 1925 3584 2291 3584 
Q 2894 3584 3203 3211 
Q 3513 2838 3513 2113 
z
" transform="scale(0.015625)"/>
      <path id="DejaVuSans-65" d="M 3597 1894 
L 3597 1613 
L 953 1613 
Q 991 1019 1311 708 
Q 1631 397 2203 397 
Q 2534 397 2845 478 
Q 3156 559 3463 722 
L 3463 178 
Q 3153 47 2828 -22 
Q 2503 -91 2169 -91 
Q 1331 -91 842 396 
Q 353 884 353 1716 
Q 353 2575 817 3079 
Q 1281 3584 2069 3584 
Q 2775 3584 3186 3129 
Q 3597 2675 3597 1894 
z
M 3022 2063 
Q 3016 2534 2758 2815 
Q 2500 3097 2075 3097 
Q 1594 3097 1305 2825 
Q 1016 2553 972 2059 
L 3022 2063 
z
" transform="scale(0.015625)"/>
     </defs>
     <use xlink:href="#DejaVuSans-43f"/>
     <use xlink:href="#DejaVuSans-435" x="65.380859"/>
     <use xlink:href="#DejaVuSans-440" x="126.904297"/>
     <use xlink:href="#DejaVuSans-435" x="190.380859"/>
     <use xlink:href="#DejaVuSans-442" x="251.904297"/>
     <use xlink:href="#DejaVuSans-438" x="310.15625"/>
     <use xlink:href="#DejaVuSans-43d" x="375.146484"/>
     <use xlink:href="#DejaVuSans-20" x="440.527344"/>
     <use xlink:href="#DejaVuSans-6c" x="472.314453"/>
     <use xlink:href="#DejaVuSans-69" x="500.097656"/>
     <use xlink:href="#DejaVuSans-6e" x="527.880859"/>
     <use xlink:href="#DejaVuSans-65" x="591.259766"/>
     <use xlink:href="#DejaVuSans-31" x="652.783203"/>
     <use xlink:href="#DejaVuSans-20" x="716.40625"/>
     <use xlink:href="#DejaVuSans-69" x="748.193359"/>
     <use xlink:href="#DejaVuSans-20" x="775.976562"/>
     <use xlink:href="#DejaVuSans-6c" x="807.763672"/>
     <use xlink:href="#DejaVuSans-69" x="835.546875"/>
     <use xlink:href="#DejaVuSans-6e" x="863.330078"/>
     <use xlink:href="#DejaVuSans-65" x="926.708984"/>
     <use xlink:href="#DejaVuSans-32" x="988.232422"/>
    </g>
   </g>
   <g id="patch_8">
    <path d="M 227.663755 122.325829 
Q 222.743977 141.87602 218.097043 160.341981 
" style="fill: none; stroke: #000000; stroke-linecap: round"/>
    <path d="M 221.012733 156.951 
L 218.097043 160.341981 
L 217.133673 155.97484 
" style="fill: none; stroke: #000000; stroke-linecap: round"/>
   </g>
   <g id="text_21">
    <!-- перетин line1  -->
    <g transform="translate(193.872025 105.110519) scale(0.1 -0.1)">
     <use xlink:href="#DejaVuSans-43f"/>
     <use xlink:href="#DejaVuSans-435" x="65.380859"/>
     <use xlink:href="#DejaVuSans-440" x="126.904297"/>
     <use xlink:href="#DejaVuSans-435" x="190.380859"/>
     <use xlink:href="#DejaVuSans-442" x="251.904297"/>
     <use xlink:href="#DejaVuSans-438" x="310.15625"/>
     <use xlink:href="#DejaVuSans-43d" x="375.146484"/>
     <use xlink:href="#DejaVuSans-20" x="440.527344"/>
     <use xlink:href="#DejaVuSans-6c" x="472.314453"/>
     <use xlink:href="#DejaVuSans-69" x="500.097656"/>
     <use xlink:href="#DejaVuSans-6e" x="527.880859"/>
     <use xlink:href="#DejaVuSans-65" x="591.259766"/>
     <use xlink:href="#DejaVuSans-31" x="652.783203"/>
     <use xlink:href="#DejaVuSans-20" x="716.40625"/>
    </g>
    <!--  i line3 -->
    <g transform="translate(193.872025 116.308332) scale(0.1 -0.1)">
     <use xlink:href="#DejaVuSans-20"/>
     <use xlink:href="#DejaVuSans-69" x="31.787109"/>
     <use xlink:href="#DejaVuSans-20" x="59.570312"/>
     <use xlink:href="#DejaVuSans-6c" x="91.357422"/>
     <use xlink:href="#DejaVuSans-69" x="119.140625"/>
     <use xlink:href="#DejaVuSans-6e" x="146.923828"/>
     <use xlink:href="#DejaVuSans-65" x="210.302734"/>
     <use xlink:href="#DejaVuSans-33" x="271.826172"/>
    </g>
   </g>
   <g id="patch_9">
    <path d="M 308.925684 215.554004 
Q 288.753148 230.788977 269.472792 245.350144 
" style="fill: none; stroke: #000000; stroke-linecap: round"/>
    <path d="M 273.870095 244.535449 
L 269.472792 245.350144 
L 271.459417 241.343485 
" style="fill: none; stroke: #000000; stroke-linecap: round"/>
   </g>
   <g id="text_22">
    <!-- перетин line2 i line3 -->
    <g transform="translate(266.985853 210.268364) scale(0.1 -0.1)">
     <use xlink:href="#DejaVuSans-43f"/>
     <use xlink:href="#DejaVuSans-435" x="65.380859"/>
     <use xlink:href="#DejaVuSans-440" x="126.904297"/>
     <use xlink:href="#DejaVuSans-435" x="190.380859"/>
     <use xlink:href="#DejaVuSans-442" x="251.904297"/>
     <use xlink:href="#DejaVuSans-438" x="310.15625"/>
     <use xlink:href="#DejaVuSans-43d" x="375.146484"/>
     <use xlink:href="#DejaVuSans-20" x="440.527344"/>
     <use xlink:href="#DejaVuSans-6c" x="472.314453"/>
     <use xlink:href="#DejaVuSans-69" x="500.097656"/>
     <use xlink:href="#DejaVuSans-6e" x="527.880859"/>
     <use xlink:href="#DejaVuSans-65" x="591.259766"/>
     <use xlink:href="#DejaVuSans-32" x="652.783203"/>
     <use xlink:href="#DejaVuSans-20" x="716.40625"/>
     <use xlink:href="#DejaVuSans-69" x="748.193359"/>
     <use xlink:href="#DejaVuSans-20" x="775.976562"/>
     <use xlink:href="#DejaVuSans-6c" x="807.763672"/>
     <use xlink:href="#DejaVuSans-69" x="835.546875"/>
     <use xlink:href="#DejaVuSans-6e" x="863.330078"/>
     <use xlink:href="#DejaVuSans-65" x="926.708984"/>
     <use xlink:href="#DejaVuSans-33" x="988.232422"/>
    </g>
   </g>
   <g id="text_23">
    <!-- Графік трьох прямих -->
    <g transform="translate(191.327923 37.2) scale(0.12 -0.12)">
     <defs>
      <path id="DejaVuSans-413" d="M 628 0 
L 628 4666 
L 3531 4666 
L 3531 4134 
L 1259 4134 
L 1259 0 
L 628 0 
z
" transform="scale(0.015625)"/>
      <path id="DejaVuSans-430" d="M 2194 1759 
Q 1497 1759 1228 1600 
Q 959 1441 959 1056 
Q 959 750 1161 570 
Q 1363 391 1709 391 
Q 2188 391 2477 730 
Q 2766 1069 2766 1631 
L 2766 1759 
L 2194 1759 
z
M 3341 1997 
L 3341 0 
L 2766 0 
L 2766 531 
Q 2569 213 2275 61 
Q 1981 -91 1556 -91 
Q 1019 -91 701 211 
Q 384 513 384 1019 
Q 384 1609 779 1909 
Q 1175 2209 1959 2209 
L 2766 2209 
L 2766 2266 
Q 2766 2663 2505 2880 
Q 2244 3097 1772 3097 
Q 1472 3097 1187 3025 
Q 903 2953 641 2809 
L 641 3341 
Q 956 3463 1253 3523 
Q 1550 3584 1831 3584 
Q 2591 3584 2966 3190 
Q 3341 2797 3341 1997 
z
" transform="scale(0.015625)"/>
      <path id="DejaVuSans-444" d="M 947 1747 
Q 947 1013 1173 702 
Q 1400 391 1784 391 
Q 2091 391 2447 916 
L 2447 2578 
Q 2091 3103 1784 3103 
Q 1400 3103 1173 2792 
Q 947 2481 947 1747 
z
M 2447 -1331 
L 2447 447 
Q 2269 153 2064 31 
Q 1859 -91 1600 -91 
Q 1078 -91 714 392 
Q 350 875 350 1734 
Q 350 2594 714 3089 
Q 1078 3584 1600 3584 
Q 1859 3584 2064 3465 
Q 2269 3347 2447 3053 
L 2447 4666 
L 3025 4666 
L 3025 3053 
Q 3203 3347 3408 3465 
Q 3613 3584 3872 3584 
Q 4394 3584 4758 3089 
Q 5122 2594 5122 1734 
Q 5122 875 4758 392 
Q 4394 -91 3872 -91 
Q 3613 -91 3408 31 
Q 3203 153 3025 447 
L 3025 -1331 
L 2447 -1331 
z
M 4525 1747 
Q 4525 2481 4298 2792 
Q 4072 3103 3688 3103 
Q 3381 3103 3025 2578 
L 3025 916 
Q 3381 391 3688 391 
Q 4072 391 4298 702 
Q 4525 1013 4525 1747 
z
" transform="scale(0.015625)"/>
      <path id="DejaVuSans-456" d="M 603 3500 
L 1178 3500 
L 1178 0 
L 603 0 
L 603 3500 
z
M 603 4863 
L 1178 4863 
L 1178 4134 
L 603 4134 
L 603 4863 
z
" transform="scale(0.015625)"/>
      <path id="DejaVuSans-43a" d="M 581 3500 
L 1153 3500 
L 1153 1856 
L 2775 3500 
L 3481 3500 
L 2144 2147 
L 3653 0 
L 3009 0 
L 1769 1766 
L 1153 1141 
L 1153 0 
L 581 0 
L 581 3500 
z
" transform="scale(0.015625)"/>
      <path id="DejaVuSans-44c" d="M 2781 1038 
Q 2781 1319 2576 1466 
Q 2372 1613 1978 1613 
L 1159 1613 
L 1159 459 
L 1978 459 
Q 2372 459 2576 607 
Q 2781 756 2781 1038 
z
M 581 3500 
L 1159 3500 
L 1159 2072 
L 2003 2072 
Q 2672 2072 3033 1817 
Q 3394 1563 3394 1038 
Q 3394 513 3033 256 
Q 2672 0 2003 0 
L 581 0 
L 581 3500 
z
" transform="scale(0.015625)"/>
      <path id="DejaVuSans-43e" d="M 1959 3097 
Q 1497 3097 1228 2736 
Q 959 2375 959 1747 
Q 959 1119 1226 758 
Q 1494 397 1959 397 
Q 2419 397 2687 759 
Q 2956 1122 2956 1747 
Q 2956 2369 2687 2733 
Q 2419 3097 1959 3097 
z
M 1959 3584 
Q 2709 3584 3137 3096 
Q 3566 2609 3566 1747 
Q 3566 888 3137 398 
Q 2709 -91 1959 -91 
Q 1206 -91 779 398 
Q 353 888 353 1747 
Q 353 2609 779 3096 
Q 1206 3584 1959 3584 
z
" transform="scale(0.015625)"/>
      <path id="DejaVuSans-445" d="M 3513 3500 
L 2247 1797 
L 3578 0 
L 2900 0 
L 1881 1375 
L 863 0 
L 184 0 
L 1544 1831 
L 300 3500 
L 978 3500 
L 1906 2253 
L 2834 3500 
L 3513 3500 
z
" transform="scale(0.015625)"/>
      <path id="DejaVuSans-44f" d="M 1181 2491 
Q 1181 2231 1381 2084 
Q 1581 1938 1953 1938 
L 2728 1938 
L 2728 3041 
L 1953 3041 
Q 1581 3041 1381 2897 
Q 1181 2753 1181 2491 
z
M 363 0 
L 1431 1534 
Q 1069 1616 828 1830 
Q 588 2044 588 2491 
Q 588 2997 923 3248 
Q 1259 3500 1938 3500 
L 3306 3500 
L 3306 0 
L 2728 0 
L 2728 1478 
L 2013 1478 
L 981 0 
L 363 0 
z
" transform="scale(0.015625)"/>
      <path id="DejaVuSans-43c" d="M 581 3500 
L 1422 3500 
L 2416 1156 
L 3413 3500 
L 4247 3500 
L 4247 0 
L 3669 0 
L 3669 2950 
L 2703 672 
L 2128 672 
L 1159 2950 
L 1159 0 
L 581 0 
L 581 3500 
z
" transform="scale(0.015625)"/>
     </defs>
     <use xlink:href="#DejaVuSans-413"/>
     <use xlink:href="#DejaVuSans-440" x="60.986328"/>
     <use xlink:href="#DejaVuSans-430" x="124.462891"/>
     <use xlink:href="#DejaVuSans-444" x="185.742188"/>
     <use xlink:href="#DejaVuSans-456" x="271.240234"/>
     <use xlink:href="#DejaVuSans-43a" x="299.023438"/>
     <use xlink:href="#DejaVuSans-20" x="359.423828"/>
     <use xlink:href="#DejaVuSans-442" x="391.210938"/>
     <use xlink:href="#DejaVuSans-440" x="449.462891"/>
     <use xlink:href="#DejaVuSans-44c" x="512.939453"/>
     <use xlink:href="#DejaVuSans-43e" x="571.875"/>
     <use xlink:href="#DejaVuSans-445" x="633.056641"/>
     <use xlink:href="#DejaVuSans-20" x="692.236328"/>
     <use xlink:href="#DejaVuSans-43f" x="724.023438"/>
     <use xlink:href="#DejaVuSans-440" x="789.404297"/>
     <use xlink:href="#DejaVuSans-44f" x="852.880859"/>
     <use xlink:href="#DejaVuSans-43c" x="913.037109"/>
     <use xlink:href="#DejaVuSans-438" x="988.476562"/>
     <use xlink:href="#DejaVuSans-445" x="1053.466797"/>
    </g>
   </g>
   <g id="legend_1">
    <g id="patch_10">
     <path d="M 142 315.4 
L 198.409375 315.4 
Q 200.409375 315.4 200.409375 313.4 
L 200.409375 270.365625 
Q 200.409375 268.365625 198.409375 268.365625 
L 142 268.365625 
Q 140 268.365625 140 270.365625 
L 140 313.4 
Q 140 315.4 142 315.4 
z
" style="fill: #ffffff; opacity: 0.8; stroke: #cccccc; stroke-linejoin: miter"/>
    </g>
    <g id="line2d_32">
     <path d="M 144 276.464063 
L 154 276.464063 
L 164 276.464063 
" style="fill: none; stroke-dasharray: 5.55,2.4; stroke-dashoffset: 0; stroke: #0000ff; stroke-width: 1.5"/>
    </g>
    <g id="text_24">
     <!-- line1 -->
     <g transform="translate(172 279.964063) scale(0.1 -0.1)">
      <use xlink:href="#DejaVuSans-6c"/>
      <use xlink:href="#DejaVuSans-69" x="27.783203"/>
      <use xlink:href="#DejaVuSans-6e" x="55.566406"/>
      <use xlink:href="#DejaVuSans-65" x="118.945312"/>
      <use xlink:href="#DejaVuSans-31" x="180.46875"/>
     </g>
    </g>
    <g id="line2d_33">
     <path d="M 144 291.142187 
L 154 291.142187 
L 164 291.142187 
" style="fill: none; stroke-dasharray: 1.5,2.475; stroke-dashoffset: 0; stroke: #ff0000; stroke-width: 1.5"/>
    </g>
    <g id="text_25">
     <!-- line2 -->
     <g transform="translate(172 294.642187) scale(0.1 -0.1)">
      <use xlink:href="#DejaVuSans-6c"/>
      <use xlink:href="#DejaVuSans-69" x="27.783203"/>
      <use xlink:href="#DejaVuSans-6e" x="55.566406"/>
      <use xlink:href="#DejaVuSans-65" x="118.945312"/>
      <use xlink:href="#DejaVuSans-32" x="180.46875"/>
     </g>
    </g>
    <g id="line2d_34">
     <path d="M 144 305.820312 
L 154 305.820312 
L 164 305.820312 
" style="fill: none; stroke-dasharray: 9.6,2.4,1.5,2.4; stroke-dashoffset: 0; stroke: #008000; stroke-width: 1.5"/>
    </g>
    <g id="text_26">
     <!-- line3 -->
     <g transform="translate(172 309.320312) scale(0.1 -0.1)">
      <use xlink:href="#DejaVuSans-6c"/>
      <use xlink:href="#DejaVuSans-69" x="27.783203"/>
      <use xlink:href="#DejaVuSans-6e" x="55.566406"/>
      <use xlink:href="#DejaVuSans-65" x="118.945312"/>
      <use xlink:href="#DejaVuSans-33" x="180.46875"/>
     </g>
    </g>
   </g>
  </g>
 </g>
 <defs>
  <clipPath id="pbe8a1f93e3">
   <rect x="135" y="43.2" width="246.176471" height="277.2"/>
  </clipPath>
 </defs>
</svg>
